<svg width="25" height="25" viewBox="0 0 25 25" fill="none" xmlns="http://www.w3.org/2000/svg">
<path d="M12.5 2.34375C8.19452 2.34375 4.68749 5.85077 4.6875 10.1563C4.68751 12.3696 5.7888 14.6528 7.21741 16.7892C8.64602 18.9257 10.4329 20.9127 11.9476 22.4274C12.2527 22.7324 12.7473 22.7324 13.0524 22.4274C14.6016 20.8781 16.3883 18.8903 17.8085 16.7618C19.2288 14.6333 20.3125 12.3649 20.3125 10.1563C20.3125 5.85077 16.8055 2.34375 12.5 2.34375ZM12.5 3.90625C15.961 3.90625 18.75 6.69521 18.75 10.1563C18.75 11.8309 17.8429 13.8976 16.51 15.8951C15.3343 17.6571 13.8635 19.351 12.5 20.7596C11.1626 19.3765 9.69781 17.687 8.51593 15.9195C7.17384 13.9124 6.25 11.8262 6.25 10.1563C6.24999 6.69521 9.03896 3.90625 12.5 3.90625Z" fill="#8B4EE7"/>
<path d="M12.5 7.03125C10.7834 7.03125 9.375 8.43962 9.375 10.1563C9.375 11.8729 10.7834 13.2812 12.5 13.2812C14.2166 13.2812 15.625 11.8729 15.625 10.1563C15.625 8.43962 14.2166 7.03125 12.5 7.03125ZM12.5 8.59375C13.3722 8.59375 14.0625 9.28405 14.0625 10.1563C14.0625 11.0284 13.3722 11.7188 12.5 11.7188C11.6278 11.7188 10.9375 11.0284 10.9375 10.1563C10.9375 9.28405 11.6278 8.59375 12.5 8.59375Z" fill="#8B4EE7"/>
</svg>
