<svg width="246" height="197" viewBox="0 0 246 197" fill="none" xmlns="http://www.w3.org/2000/svg">
<path d="M8.00003 185.565C8.00003 185.565 7.50003 96.2385 137 96.2385C266.5 96.2385 243 2.4707 243 2.4707" stroke="#343B4E" stroke-opacity="0.2" stroke-dasharray="2 2"/>
<path d="M161.947 126.346L181.468 185.486L159.583 178.723L145.958 196.916L127.885 142.166" fill="#EE6C6C"/>
<path d="M89.5462 127.631L71.5391 185.487L93.4239 178.723L107.049 196.916L123.94 142.442" fill="#EE6C6C"/>
<path d="M131.908 33.3362L136.901 30.5444C138.179 29.8298 139.59 29.376 141.049 29.2097C142.508 29.0435 143.986 29.1682 145.396 29.5765C146.805 29.9848 148.117 30.6684 149.254 31.5867C150.391 32.5049 151.329 33.6392 152.013 34.9222L154.669 39.9423C155.551 41.5954 156.85 42.9953 158.442 44.0059C160.034 45.0164 161.863 45.6034 163.753 45.7096L169.489 46.0242C170.96 46.1061 172.398 46.4794 173.719 47.1219C175.04 47.7644 176.217 48.6629 177.178 49.7637C178.14 50.8646 178.867 52.1454 179.317 53.5296C179.766 54.9139 179.929 56.3733 179.794 57.8208L179.303 63.4701C179.139 65.3317 179.467 67.2034 180.254 68.903C181.04 70.6027 182.259 72.0725 183.791 73.1695L188.439 76.4988C189.627 77.3494 190.63 78.4266 191.388 79.6667C192.147 80.9067 192.645 82.2843 192.855 83.718C193.064 85.1516 192.979 86.6121 192.607 88.013C192.234 89.414 191.58 90.7268 190.684 91.8737L187.178 96.3565C186.021 97.8346 185.271 99.5831 185.001 101.432C184.731 103.281 184.95 105.167 185.637 106.908L187.722 112.151C188.255 113.5 188.508 114.941 188.467 116.389C188.426 117.837 188.09 119.261 187.481 120.579C186.872 121.896 186.001 123.08 184.92 124.059C183.84 125.039 182.571 125.794 181.189 126.281L175.784 128.181C173.999 128.807 172.41 129.879 171.169 131.292C169.929 132.704 169.08 134.41 168.706 136.242L167.577 141.8C167.287 143.224 166.709 144.576 165.879 145.775C165.048 146.975 163.982 147.997 162.743 148.781C161.504 149.565 160.117 150.094 158.666 150.339C157.216 150.583 155.73 150.536 154.297 150.202L148.707 148.891C146.863 148.465 144.938 148.517 143.121 149.043C141.303 149.569 139.654 150.551 138.335 151.892L134.351 155.956C133.329 156.995 132.106 157.82 130.755 158.384C129.403 158.948 127.951 159.239 126.483 159.239C125.016 159.239 123.564 158.948 122.212 158.384C120.861 157.82 119.638 156.995 118.615 155.956L114.631 151.892C113.312 150.551 111.664 149.569 109.846 149.043C108.029 148.517 106.104 148.465 104.26 148.891L98.6692 150.202C97.2369 150.536 95.7511 150.583 94.3002 150.339C92.8493 150.094 91.4631 149.565 90.224 148.781C88.9848 147.997 87.9183 146.975 87.0877 145.775C86.2572 144.576 85.6797 143.224 85.3896 141.8L84.2608 136.242C83.8864 134.41 83.0378 132.704 81.7974 131.292C80.557 129.879 78.9672 128.807 77.1828 128.181L71.778 126.281C70.3961 125.794 69.1271 125.039 68.0462 124.059C66.9654 123.08 66.0945 121.896 65.4853 120.579C64.8761 119.261 64.5409 117.837 64.4995 116.389C64.4581 114.941 64.7114 113.5 65.2444 112.151L67.3293 106.908C68.0166 105.167 68.2359 103.281 67.966 101.432C67.6961 99.5831 66.946 97.8346 65.7889 96.3565L62.2831 91.8737C61.3869 90.7268 60.733 89.414 60.3601 88.013C59.9871 86.6121 59.9028 85.1516 60.1121 83.718C60.3214 82.2843 60.82 80.9067 61.5784 79.6667C62.3368 78.4266 63.3395 77.3494 64.5273 76.4988L69.1752 73.1695C70.7077 72.0725 71.9266 70.6027 72.7131 68.903C73.4997 67.2034 73.8271 65.3317 73.6637 63.4701L73.1723 57.8208C73.0381 56.3733 73.2005 54.9139 73.6499 53.5296C74.0993 52.1454 74.8266 50.8646 75.7882 49.7637C76.7499 48.6629 77.9263 47.7644 79.2474 47.1219C80.5684 46.4794 82.007 46.1061 83.4773 46.0242L89.2141 45.7096C91.1036 45.6034 92.933 45.0164 94.5247 44.0059C96.1163 42.9953 97.416 41.5954 98.2973 39.9423L100.953 34.9222C101.637 33.634 102.577 32.495 103.717 31.5732C104.857 30.6514 106.173 29.9657 107.587 29.5571C109.002 29.1485 110.485 29.0254 111.948 29.195C113.412 29.3646 114.825 29.8235 116.105 30.5444L121.098 33.3362C122.747 34.2575 124.609 34.7418 126.503 34.7418C128.398 34.7418 130.26 34.2575 131.908 33.3362V33.3362Z" fill="#B4B2FF"/>
<path d="M126.504 121.143C141.576 121.143 153.794 109.083 153.794 94.2071C153.794 79.331 141.576 67.2715 126.504 67.2715C111.433 67.2715 99.2148 79.331 99.2148 94.2071C99.2148 109.083 111.433 121.143 126.504 121.143Z" fill="white"/>
<path d="M112.906 91.7793L123.659 102.423C124.069 102.829 124.736 102.805 125.116 102.371L141.236 83.9473" stroke="#4DB45E" stroke-width="3"/>
<path d="M126.503 67.2711C131.901 67.2711 137.177 68.8508 141.664 71.8105C146.152 74.7703 149.65 78.977 151.715 83.8989C153.781 88.8207 154.321 94.2366 153.268 99.4616C152.215 104.687 149.616 109.486 145.8 113.253C141.983 117.02 137.121 119.585 131.827 120.625C126.533 121.664 121.046 121.131 116.06 119.092C111.073 117.053 106.811 113.601 103.813 109.171C100.814 104.742 99.2135 99.5341 99.2135 94.2067C99.2135 87.0629 102.089 80.2117 107.206 75.1603C112.324 70.1089 119.265 67.2711 126.503 67.2711V67.2711ZM126.503 56.7852C119.005 56.7852 111.674 58.9799 105.44 63.0918C99.2048 67.2038 94.3454 73.0482 91.4758 79.8861C88.6063 86.724 87.8555 94.2482 89.3184 101.507C90.7812 108.766 94.3921 115.434 99.6944 120.668C104.997 125.901 111.752 129.465 119.107 130.909C126.461 132.353 134.084 131.612 141.012 128.78C147.94 125.947 153.861 121.151 158.027 114.997C162.193 108.843 164.416 101.608 164.416 94.2067C164.406 84.2851 160.408 74.7728 153.3 67.7572C146.192 60.7415 136.555 56.7956 126.503 56.7852V56.7852Z" fill="#FFBEDC"/>
<path fill-rule="evenodd" clip-rule="evenodd" d="M15 185.565L14.9989 185.565L14.9955 185.565L14.9899 185.565L14.982 185.565L14.9719 185.566L14.9596 185.566L14.945 185.567L14.9283 185.569L14.9093 185.57L14.8882 185.572L14.8648 185.575L14.8394 185.578L14.8117 185.581L14.782 185.585L14.7502 185.59L14.7163 185.595L14.6803 185.601L14.6423 185.607L14.6023 185.615L14.5604 185.623L14.5165 185.632L14.4707 185.642L14.423 185.653L14.3734 185.664L14.322 185.677L14.2689 185.691L14.214 185.705L14.1574 185.721L14.0992 185.738L14.0393 185.756L13.9778 185.775L13.9148 185.795L13.8503 185.817L13.7843 185.839L13.7169 185.863L13.6482 185.888L13.5781 185.915L13.5067 185.943L13.4341 185.972L13.3604 186.002L13.2855 186.034L13.2095 186.067L13.1325 186.101L13.0546 186.137L12.9756 186.174L12.8959 186.213L12.8153 186.252L12.7339 186.294L12.6518 186.336L12.569 186.381L12.4857 186.426L12.4017 186.473L12.3173 186.521L12.2324 186.571L12.1471 186.622L12.0615 186.674L11.9755 186.728L11.8894 186.783L11.803 186.84L11.7165 186.897L11.6299 186.957L11.5433 187.017L11.4568 187.079L11.3703 187.141L11.2839 187.206L11.1977 187.271L11.1117 187.338L11.026 187.405L10.9406 187.474L10.8556 187.544L10.7711 187.615L10.687 187.687L10.6034 187.76L10.5203 187.834L10.4379 187.909L10.3561 187.985L10.2751 188.062L10.1947 188.14L10.1151 188.218L10.0364 188.298L9.95844 188.378L9.88142 188.458L9.80532 188.539L9.73018 188.621L9.65605 188.704L9.58294 188.787L9.51089 188.87L9.43993 188.954L9.3701 189.038L9.30141 189.123L9.2339 189.208L9.16759 189.293L9.10251 189.378L9.03867 189.463L8.9761 189.549L8.91483 189.634L8.85486 189.72L8.79621 189.805L8.73891 189.89L8.68295 189.976L8.62837 190.06L8.57516 190.145L8.52334 190.229L8.47291 190.313L8.42389 190.396L8.37628 190.479L8.33007 190.562L8.28528 190.643L8.2419 190.724L8.19994 190.805L8.15939 190.884L8.12024 190.963L8.0825 191.041L8.04615 191.118L8.01119 191.194L7.97761 191.269L7.9454 191.343L7.91454 191.416L7.88502 191.488L7.85683 191.559L7.82994 191.628L7.80435 191.696L7.78003 191.762L7.75696 191.828L7.73513 191.891L7.7145 191.954L7.69505 192.015L7.67676 192.074L7.6596 192.131L7.64354 192.187L7.62856 192.242L7.61463 192.294L7.6017 192.345L7.58976 192.394L7.57877 192.441L7.56869 192.487L7.55949 192.53L7.55114 192.572L7.54359 192.611L7.53681 192.649L7.53077 192.685L7.52541 192.718L7.52071 192.75L7.51663 192.779L7.51311 192.807L7.51012 192.832L7.50763 192.855L7.50558 192.876L7.50393 192.895L7.50264 192.912L7.50167 192.927L7.50097 192.939L7.50049 192.949L7.5002 192.957L7.50005 192.963L7.5 192.966L7.49999 192.968L7.49998 192.967L7.49993 192.963L7.4998 192.958L7.49953 192.951L7.49909 192.941L7.49843 192.929L7.49751 192.915L7.49627 192.898L7.49468 192.88L7.4927 192.859L7.49028 192.836L7.48737 192.811L7.48394 192.784L7.47995 192.755L7.47535 192.724L7.4701 192.69L7.46417 192.655L7.45751 192.618L7.45009 192.578L7.44187 192.537L7.4328 192.494L7.42287 192.449L7.41202 192.402L7.40023 192.353L7.38747 192.303L7.3737 192.25L7.35889 192.196L7.343 192.14L7.32602 192.083L7.30791 192.024L7.28865 191.964L7.26821 191.901L7.24657 191.838L7.2237 191.773L7.19958 191.706L7.17419 191.639L7.14751 191.57L7.11953 191.499L7.09022 191.428L7.05958 191.355L7.02758 191.281L6.99422 191.206L6.95948 191.13L6.92335 191.054L6.88583 190.976L6.84691 190.897L6.80658 190.818L6.76485 190.737L6.72169 190.656L6.67713 190.575L6.63115 190.492L6.58376 190.41L6.53496 190.326L6.48476 190.243L6.43316 190.158L6.38017 190.074L6.3258 189.989L6.27007 189.904L6.21298 189.819L6.15454 189.733L6.09478 189.648L6.03371 189.563L5.97135 189.477L5.90772 189.392L5.84283 189.306L5.77671 189.221L5.70939 189.136L5.64089 189.052L5.57124 188.968L5.50046 188.884L5.42858 188.8L5.35564 188.717L5.28166 188.634L5.20668 188.553L5.13074 188.471L5.05386 188.39L4.97609 188.31L4.89745 188.231L4.818 188.152L4.73777 188.074L4.6568 187.997L4.57512 187.921L4.4928 187.846L4.40986 187.772L4.32636 187.699L4.24233 187.626L4.15783 187.555L4.0729 187.485L3.98758 187.416L3.90194 187.348L3.816 187.281L3.72984 187.216L3.64349 187.152L3.557 187.089L3.47043 187.027L3.38383 186.966L3.29725 186.907L3.21075 186.849L3.12436 186.792L3.03816 186.737L2.95219 186.683L2.8665 186.63L2.78114 186.579L2.69618 186.529L2.61167 186.481L2.52765 186.433L2.44418 186.388L2.36132 186.343L2.27911 186.3L2.19762 186.259L2.11689 186.219L2.03697 186.18L1.95792 186.143L1.8798 186.107L1.80264 186.072L1.7265 186.039L1.65144 186.007L1.5775 185.976L1.50472 185.947L1.43317 185.919L1.36289 185.893L1.29392 185.867L1.22631 185.843L1.1601 185.82L1.09535 185.799L1.03209 185.778L0.970372 185.759L0.910231 185.741L0.851711 185.724L0.794852 185.708L0.739692 185.693L0.686269 185.679L0.634621 185.666L0.584781 185.654L0.536786 185.643L0.490667 185.633L0.446456 185.624L0.404185 185.616L0.363883 185.608L0.325577 185.602L0.289293 185.596L0.255058 185.59L0.222895 185.586L0.192826 185.582L0.164872 185.578L0.139053 185.575L0.115387 185.573L0.0938896 185.57L0.0745766 185.569L0.0574614 185.568L0.0425558 185.567L0.0298703 185.566L0.0194138 185.565L0.0111935 185.565L0.00521528 185.565L0.00148323 185.565L0 185.565L0.000766622 185.565L0.00378256 185.565L0.0090457 185.565L0.0165524 185.564L0.0262973 185.564L0.0382737 185.563L0.0524732 185.562L0.0688858 185.561L0.0875001 185.56L0.108303 185.558L0.13128 185.555L0.156415 185.553L0.183691 185.549L0.213089 185.545L0.244587 185.541L0.278165 185.536L0.313798 185.53L0.351463 185.523L0.391133 185.516L0.43278 185.508L0.476376 185.499L0.52189 185.49L0.569291 185.479L0.618547 185.467L0.669623 185.455L0.722485 185.441L0.777096 185.427L0.833418 185.411L0.891413 185.394L0.951042 185.377L1.01226 185.358L1.07504 185.338L1.13932 185.316L1.20506 185.294L1.27223 185.27L1.34077 185.245L1.41064 185.219L1.4818 185.192L1.55419 185.163L1.62776 185.133L1.70247 185.101L1.77827 185.068L1.85511 185.034L1.93294 184.999L2.0117 184.962L2.09134 184.923L2.17182 184.884L2.25307 184.843L2.33506 184.8L2.41772 184.756L2.501 184.711L2.58485 184.664L2.66921 184.616L2.75404 184.567L2.83927 184.516L2.92486 184.464L3.01075 184.41L3.09688 184.355L3.18321 184.299L3.26969 184.241L3.35625 184.183L3.44285 184.122L3.52943 184.061L3.61595 183.998L3.70235 183.934L3.78858 183.869L3.87459 183.803L3.96034 183.735L4.04576 183.667L4.13082 183.597L4.21546 183.526L4.29965 183.454L4.38332 183.381L4.46645 183.307L4.54897 183.232L4.63085 183.156L4.71205 183.08L4.79253 183.002L4.87223 182.924L4.95113 182.845L5.02918 182.765L5.10635 182.684L5.1826 182.603L5.25789 182.521L5.33219 182.439L5.40546 182.356L5.47768 182.273L5.54881 182.189L5.61883 182.105L5.6877 182.02L5.7554 181.935L5.8219 181.85L5.88718 181.765L5.95122 181.68L6.01399 181.594L6.07547 181.509L6.13565 181.423L6.19451 181.338L6.25203 181.253L6.3082 181.168L6.363 181.083L6.41643 180.998L6.46847 180.914L6.51912 180.83L6.56837 180.747L6.61621 180.664L6.66264 180.581L6.70765 180.499L6.75125 180.418L6.79344 180.338L6.83422 180.258L6.87359 180.179L6.91155 180.101L6.94812 180.024L6.9833 179.947L7.0171 179.872L7.04953 179.798L7.08061 179.725L7.11034 179.653L7.13874 179.582L7.16583 179.513L7.19163 179.445L7.21615 179.378L7.23942 179.312L7.26145 179.248L7.28227 179.186L7.3019 179.125L7.32038 179.065L7.33771 179.007L7.35394 178.951L7.36909 178.896L7.38319 178.844L7.39628 178.792L7.40837 178.743L7.41951 178.696L7.42974 178.65L7.43907 178.606L7.44756 178.564L7.45523 178.524L7.46213 178.486L7.46829 178.45L7.47375 178.416L7.47855 178.385L7.48273 178.355L7.48634 178.327L7.48941 178.301L7.49198 178.278L7.4941 178.256L7.49581 178.237L7.49715 178.22L7.49817 178.205L7.49891 178.192L7.49942 178.182L7.49973 178.174L7.4999 178.168L7.49997 178.164L7.49999 178.162L7.49999 178.163L7.50003 178.165L7.50014 178.171L7.50038 178.178L7.50079 178.187L7.50142 178.199L7.5023 178.213L7.50348 178.229L7.50501 178.247L7.50693 178.267L7.50928 178.29L7.5121 178.314L7.51545 178.341L7.51935 178.37L7.52385 178.401L7.52899 178.434L7.53481 178.469L7.54135 178.506L7.54865 178.545L7.55674 178.586L7.56567 178.629L7.57546 178.674L7.58616 178.72L7.59779 178.769L7.6104 178.819L7.62401 178.871L7.63866 178.925L7.65437 178.98L7.67117 179.037L7.6891 179.096L7.70817 179.156L7.72842 179.218L7.74987 179.282L7.77255 179.346L7.79647 179.412L7.82165 179.48L7.84812 179.549L7.8759 179.619L7.90499 179.69L7.93542 179.763L7.9672 179.837L8.00035 179.911L8.03487 179.987L8.07077 180.064L8.10807 180.141L8.14677 180.22L8.18687 180.299L8.22838 180.38L8.27131 180.46L8.31565 180.542L8.3614 180.624L8.40857 180.707L8.45715 180.79L8.50713 180.874L8.5585 180.958L8.61127 181.042L8.66542 181.127L8.72093 181.212L8.77781 181.297L8.83603 181.383L8.89558 181.468L8.95645 181.553L9.0186 181.639L9.08204 181.724L9.14673 181.81L9.21265 181.895L9.27978 181.98L9.34809 182.064L9.41756 182.149L9.48817 182.233L9.55987 182.316L9.63264 182.399L9.70646 182.482L9.78128 182.564L9.85707 182.646L9.93381 182.726L10.0114 182.807L10.0899 182.886L10.1693 182.965L10.2494 183.043L10.3302 183.12L10.4118 183.196L10.494 183.272L10.5769 183.346L10.6603 183.419L10.7442 183.492L10.8287 183.563L10.9135 183.633L10.9988 183.703L11.0844 183.771L11.1703 183.838L11.2564 183.903L11.3427 183.968L11.4292 184.031L11.5157 184.093L11.6023 184.154L11.6889 184.213L11.7755 184.272L11.8619 184.329L11.9481 184.384L12.0341 184.438L12.1198 184.491L12.2053 184.543L12.2903 184.593L12.3749 184.641L12.459 184.689L12.5425 184.735L12.6255 184.779L12.7078 184.822L12.7894 184.864L12.8703 184.905L12.9503 184.943L13.0295 184.981L13.1078 185.017L13.1851 185.052L13.2614 185.086L13.3367 185.118L13.4108 185.148L13.4837 185.178L13.5555 185.206L13.626 185.233L13.6952 185.258L13.763 185.283L13.8294 185.306L13.8944 185.328L13.9579 185.348L14.0199 185.368L14.0803 185.386L14.1391 185.403L14.1962 185.419L14.2516 185.434L14.3053 185.448L14.3572 185.461L14.4074 185.473L14.4557 185.485L14.5021 185.495L14.5466 185.504L14.5892 185.512L14.6298 185.52L14.6684 185.527L14.705 185.533L14.7396 185.539L14.7721 185.543L14.8025 185.547L14.8308 185.551L14.857 185.554L14.881 185.557L14.9028 185.559L14.9225 185.561L14.9399 185.562L14.9552 185.563L14.9682 185.564L14.979 185.564L14.9876 185.565L14.994 185.565L14.998 185.565L14.9999 185.565L15 185.565Z" fill="#F9C758"/>
<ellipse cx="243" cy="2.47015" rx="2" ry="1.97406" fill="#4DB45E"/>
</svg>
