<svg width="143" height="96" viewBox="0 0 143 96" fill="none" xmlns="http://www.w3.org/2000/svg">
<g opacity="0.1" filter="url(#filter0_d_205_435)">
<rect x="14.5" y="10.5" width="114" height="67" rx="9.5" stroke="#343B4E" shape-rendering="crispEdges"/>
</g>
<path d="M76.4561 33.875C75.203 33.875 73.9622 34.124 72.8045 34.6077C71.6468 35.0914 70.5949 35.8003 69.7089 36.6941C68.8228 37.5879 68.1199 38.6489 67.6404 39.8167C67.1609 40.9844 66.9141 42.236 66.9141 43.5C66.9141 44.764 67.1609 46.0156 67.6404 47.1833C68.1199 48.3511 68.8228 49.4121 69.7089 50.3059C70.5949 51.1997 71.6468 51.9086 72.8045 52.3923C73.9622 52.876 75.203 53.125 76.4561 53.125C77.7092 53.125 78.95 52.876 80.1077 52.3923C81.2654 51.9086 82.3173 51.1997 83.2033 50.3059C84.0894 49.4121 84.7922 48.3511 85.2718 47.1833C85.7513 46.0156 85.9981 44.764 85.9981 43.5C85.9981 42.236 85.7513 40.9844 85.2718 39.8167C84.7922 38.6489 84.0894 37.5879 83.2033 36.6941C82.3173 35.8003 81.2654 35.0914 80.1077 34.6077C78.95 34.124 77.7092 33.875 76.4561 33.875Z" fill="#FF9800"/>
<path d="M65.5518 33.875C64.2987 33.875 63.0579 34.124 61.9002 34.6077C60.7425 35.0914 59.6906 35.8003 58.8046 36.6941C57.9185 37.5879 57.2156 38.6489 56.7361 39.8167C56.2566 40.9844 56.0098 42.236 56.0098 43.5C56.0098 44.764 56.2566 46.0156 56.7361 47.1833C57.2156 48.3511 57.9185 49.4121 58.8046 50.3059C59.6906 51.1997 60.7425 51.9086 61.9002 52.3923C63.0579 52.876 64.2987 53.125 65.5518 53.125C66.8049 53.125 68.0457 52.876 69.2034 52.3923C70.3611 51.9086 71.413 51.1997 72.299 50.3059C73.1851 49.4121 73.8879 48.3511 74.3675 47.1833C74.847 46.0156 75.0938 44.764 75.0938 43.5C75.0938 42.236 74.847 40.9844 74.3675 39.8167C73.8879 38.6489 73.1851 37.5879 72.299 36.6941C71.413 35.8003 70.3611 35.0914 69.2034 34.6077C68.0457 34.124 66.8049 33.875 65.5518 33.875Z" fill="#D50000"/>
<path d="M66.9141 43.4999C66.9141 46.769 68.5335 49.653 71.0035 51.3924C73.4735 49.653 75.0929 46.769 75.0929 43.4999C75.0929 40.2309 73.4735 37.3468 71.0035 35.6074C68.5335 37.3468 66.9141 40.2309 66.9141 43.4999Z" fill="#FF3D00"/>
<defs>
<filter id="filter0_d_205_435" x="0" y="0" width="143" height="96" filterUnits="userSpaceOnUse" color-interpolation-filters="sRGB">
<feFlood flood-opacity="0" result="BackgroundImageFix"/>
<feColorMatrix in="SourceAlpha" type="matrix" values="0 0 0 0 0 0 0 0 0 0 0 0 0 0 0 0 0 0 127 0" result="hardAlpha"/>
<feMorphology radius="27" operator="erode" in="SourceAlpha" result="effect1_dropShadow_205_435"/>
<feOffset dy="4"/>
<feGaussianBlur stdDeviation="20.5"/>
<feComposite in2="hardAlpha" operator="out"/>
<feColorMatrix type="matrix" values="0 0 0 0 0 0 0 0 0 0 0 0 0 0 0 0 0 0 0.2 0"/>
<feBlend mode="normal" in2="BackgroundImageFix" result="effect1_dropShadow_205_435"/>
<feBlend mode="normal" in="SourceGraphic" in2="effect1_dropShadow_205_435" result="shape"/>
</filter>
</defs>
</svg>
