<svg width="144" height="96" viewBox="0 0 144 96" fill="none" xmlns="http://www.w3.org/2000/svg">
<g opacity="0.1" filter="url(#filter0_d_205_439)">
<rect x="14.5" y="10.5" width="115" height="67" rx="9.5" stroke="#343B4E" shape-rendering="crispEdges"/>
</g>
<path d="M43.5348 48C43.4468 48 43.3788 47.976 43.3308 47.928C43.2828 47.872 43.2588 47.804 43.2588 47.724V39.888C43.2588 39.8 43.2828 39.732 43.3308 39.684C43.3788 39.628 43.4468 39.6 43.5348 39.6H44.1468C44.2348 39.6 44.3028 39.628 44.3508 39.684C44.4068 39.732 44.4348 39.8 44.4348 39.888V43.2H48.5628V39.888C48.5628 39.8 48.5868 39.732 48.6348 39.684C48.6908 39.628 48.7588 39.6 48.8388 39.6H49.4508C49.5388 39.6 49.6068 39.628 49.6548 39.684C49.7108 39.732 49.7388 39.8 49.7388 39.888V47.724C49.7388 47.804 49.7108 47.872 49.6548 47.928C49.6068 47.976 49.5388 48 49.4508 48H48.8388C48.7588 48 48.6908 47.976 48.6348 47.928C48.5868 47.872 48.5628 47.804 48.5628 47.724V44.28H44.4348V47.724C44.4348 47.804 44.4068 47.872 44.3508 47.928C44.3028 47.976 44.2348 48 44.1468 48H43.5348ZM53.3975 48.12C52.9975 48.12 52.6335 48.04 52.3055 47.88C51.9775 47.72 51.7135 47.504 51.5135 47.232C51.3135 46.96 51.2135 46.652 51.2135 46.308C51.2135 45.756 51.4375 45.316 51.8855 44.988C52.3335 44.66 52.9175 44.444 53.6375 44.34L55.4255 44.088V43.74C55.4255 43.356 55.3135 43.056 55.0895 42.84C54.8735 42.624 54.5175 42.516 54.0215 42.516C53.6615 42.516 53.3695 42.588 53.1455 42.732C52.9295 42.876 52.7775 43.06 52.6895 43.284C52.6415 43.404 52.5575 43.464 52.4375 43.464H51.8975C51.8095 43.464 51.7415 43.44 51.6935 43.392C51.6535 43.336 51.6335 43.272 51.6335 43.2C51.6335 43.08 51.6775 42.932 51.7655 42.756C51.8615 42.58 52.0055 42.408 52.1975 42.24C52.3895 42.072 52.6335 41.932 52.9295 41.82C53.2335 41.7 53.6015 41.64 54.0335 41.64C54.5135 41.64 54.9175 41.704 55.2455 41.832C55.5735 41.952 55.8295 42.116 56.0135 42.324C56.2055 42.532 56.3415 42.768 56.4215 43.032C56.5095 43.296 56.5535 43.564 56.5535 43.836V47.724C56.5535 47.804 56.5255 47.872 56.4695 47.928C56.4215 47.976 56.3575 48 56.2775 48H55.7255C55.6375 48 55.5695 47.976 55.5215 47.928C55.4735 47.872 55.4495 47.804 55.4495 47.724V47.208C55.3455 47.352 55.2055 47.496 55.0295 47.64C54.8535 47.776 54.6335 47.892 54.3695 47.988C54.1055 48.076 53.7815 48.12 53.3975 48.12ZM53.6495 47.22C53.9775 47.22 54.2775 47.152 54.5495 47.016C54.8215 46.872 55.0335 46.652 55.1855 46.356C55.3455 46.06 55.4255 45.688 55.4255 45.24V44.904L54.0335 45.108C53.4655 45.188 53.0375 45.324 52.7495 45.516C52.4615 45.7 52.3175 45.936 52.3175 46.224C52.3175 46.448 52.3815 46.636 52.5095 46.788C52.6455 46.932 52.8135 47.04 53.0135 47.112C53.2215 47.184 53.4335 47.22 53.6495 47.22ZM57.9786 48C57.8986 48 57.8306 47.972 57.7746 47.916C57.7186 47.86 57.6906 47.792 57.6906 47.712V47.268C57.6906 47.1 57.7746 47.012 57.9426 47.004C58.1906 46.996 58.3986 46.88 58.5666 46.656C58.7346 46.424 58.8626 46.06 58.9506 45.564C59.0386 45.06 59.0826 44.396 59.0826 43.572V42.036C59.0826 41.956 59.1066 41.892 59.1546 41.844C59.2106 41.788 59.2786 41.76 59.3586 41.76H63.1746C63.2546 41.76 63.3186 41.788 63.3666 41.844C63.4226 41.892 63.4506 41.956 63.4506 42.036V47.724C63.4506 47.804 63.4226 47.872 63.3666 47.928C63.3186 47.976 63.2546 48 63.1746 48H62.5986C62.5186 48 62.4546 47.976 62.4066 47.928C62.3586 47.872 62.3346 47.804 62.3346 47.724V42.72H60.1746V43.704C60.1746 44.472 60.1306 45.132 60.0426 45.684C59.9546 46.228 59.8186 46.672 59.6346 47.016C59.4586 47.352 59.2306 47.6 58.9506 47.76C58.6786 47.92 58.3546 48 57.9786 48ZM65.5036 48C65.4316 48 65.3676 47.976 65.3116 47.928C65.2636 47.872 65.2396 47.812 65.2396 47.748V42.036C65.2396 41.956 65.2636 41.892 65.3116 41.844C65.3676 41.788 65.4356 41.76 65.5156 41.76H66.0916C66.1716 41.76 66.2356 41.788 66.2836 41.844C66.3316 41.892 66.3556 41.956 66.3556 42.036V47.124L66.0436 46.8L69.6796 41.94C69.7196 41.892 69.7636 41.852 69.8116 41.82C69.8596 41.78 69.9196 41.76 69.9916 41.76H70.5436C70.6076 41.76 70.6636 41.784 70.7116 41.832C70.7676 41.88 70.7956 41.936 70.7956 42V47.724C70.7956 47.804 70.7676 47.872 70.7116 47.928C70.6636 47.976 70.5996 48 70.5196 48H69.9556C69.8676 48 69.7996 47.976 69.7516 47.928C69.7036 47.872 69.6796 47.804 69.6796 47.724V42.936L70.0156 42.924L66.3556 47.82C66.3236 47.86 66.2836 47.9 66.2356 47.94C66.1876 47.98 66.1236 48 66.0436 48H65.5036ZM76.4881 48C76.4001 48 76.3321 47.976 76.2841 47.928C76.2361 47.872 76.2121 47.804 76.2121 47.724V45.468C75.9961 45.668 75.7321 45.816 75.4201 45.912C75.1161 46 74.7681 46.044 74.3761 46.044C73.6721 46.044 73.1241 45.888 72.7321 45.576C72.3481 45.264 72.1561 44.76 72.1561 44.064V42.036C72.1561 41.956 72.1801 41.892 72.2281 41.844C72.2841 41.788 72.3521 41.76 72.4321 41.76H73.0201C73.1001 41.76 73.1641 41.788 73.2121 41.844C73.2681 41.892 73.2961 41.956 73.2961 42.036V43.992C73.2961 44.352 73.4001 44.616 73.6081 44.784C73.8241 44.952 74.1521 45.036 74.5921 45.036C75.0801 45.036 75.4721 44.976 75.7681 44.856C76.0641 44.728 76.2121 44.504 76.2121 44.184V42.036C76.2121 41.956 76.2361 41.892 76.2841 41.844C76.3321 41.788 76.4001 41.76 76.4881 41.76H77.0881C77.1681 41.76 77.2321 41.788 77.2801 41.844C77.3361 41.892 77.3641 41.956 77.3641 42.036V47.724C77.3641 47.804 77.3361 47.872 77.2801 47.928C77.2321 47.976 77.1681 48 77.0881 48H76.4881ZM79.4257 48C79.3457 48 79.2777 47.976 79.2217 47.928C79.1737 47.872 79.1497 47.804 79.1497 47.724V42.036C79.1497 41.956 79.1737 41.892 79.2217 41.844C79.2777 41.788 79.3457 41.76 79.4257 41.76H80.0017C80.0817 41.76 80.1457 41.788 80.1937 41.844C80.2417 41.892 80.2657 41.956 80.2657 42.036V44.34H83.5417V42.036C83.5417 41.956 83.5657 41.892 83.6137 41.844C83.6697 41.788 83.7377 41.76 83.8177 41.76H84.3817C84.4617 41.76 84.5257 41.788 84.5737 41.844C84.6297 41.892 84.6577 41.956 84.6577 42.036V47.724C84.6577 47.804 84.6297 47.872 84.5737 47.928C84.5257 47.976 84.4617 48 84.3817 48H83.8177C83.7377 48 83.6697 47.976 83.6137 47.928C83.5657 47.872 83.5417 47.804 83.5417 47.724V45.3H80.2657V47.724C80.2657 47.804 80.2417 47.872 80.1937 47.928C80.1457 47.976 80.0817 48 80.0017 48H79.4257ZM86.7382 48C86.6582 48 86.5902 47.976 86.5342 47.928C86.4862 47.872 86.4622 47.804 86.4622 47.724V42.036C86.4622 41.956 86.4862 41.892 86.5342 41.844C86.5902 41.788 86.6582 41.76 86.7382 41.76H87.3142C87.3942 41.76 87.4582 41.788 87.5062 41.844C87.5622 41.892 87.5902 41.956 87.5902 42.036V43.8H88.8382C89.6542 43.8 90.2502 43.992 90.6262 44.376C91.0022 44.76 91.1902 45.28 91.1902 45.936C91.1902 46.64 90.9822 47.16 90.5662 47.496C90.1502 47.832 89.5262 48 88.6942 48H86.7382ZM87.5782 47.1H88.7302C89.2182 47.1 89.5742 47.016 89.7982 46.848C90.0222 46.672 90.1342 46.368 90.1342 45.936C90.1342 45.52 90.0262 45.212 89.8102 45.012C89.5942 44.804 89.2342 44.7 88.7302 44.7H87.5782V47.1ZM92.3182 48C92.2382 48 92.1702 47.976 92.1142 47.928C92.0662 47.872 92.0422 47.804 92.0422 47.724V42.036C92.0422 41.956 92.0662 41.892 92.1142 41.844C92.1702 41.788 92.2382 41.76 92.3182 41.76H92.8942C92.9742 41.76 93.0382 41.788 93.0862 41.844C93.1422 41.892 93.1702 41.956 93.1702 42.036V47.724C93.1702 47.804 93.1422 47.872 93.0862 47.928C93.0382 47.976 92.9742 48 92.8942 48H92.3182ZM97.4423 48.12C96.6183 48.12 95.9623 47.868 95.4743 47.364C94.9863 46.852 94.7183 46.156 94.6703 45.276C94.6623 45.172 94.6583 45.04 94.6583 44.88C94.6583 44.712 94.6623 44.576 94.6703 44.472C94.7023 43.904 94.8343 43.408 95.0663 42.984C95.2983 42.552 95.6143 42.22 96.0143 41.988C96.4223 41.756 96.8983 41.64 97.4423 41.64C98.0503 41.64 98.5583 41.768 98.9663 42.024C99.3823 42.28 99.6983 42.644 99.9143 43.116C100.13 43.588 100.238 44.14 100.238 44.772V44.976C100.238 45.064 100.21 45.132 100.154 45.18C100.106 45.228 100.042 45.252 99.9623 45.252H95.8103C95.8103 45.26 95.8103 45.276 95.8103 45.3C95.8103 45.324 95.8103 45.344 95.8103 45.36C95.8263 45.688 95.8983 45.996 96.0263 46.284C96.1543 46.564 96.3383 46.792 96.5783 46.968C96.8183 47.144 97.1063 47.232 97.4423 47.232C97.7303 47.232 97.9703 47.188 98.1623 47.1C98.3543 47.012 98.5103 46.916 98.6303 46.812C98.7503 46.7 98.8303 46.616 98.8703 46.56C98.9423 46.456 98.9983 46.396 99.0383 46.38C99.0783 46.356 99.1423 46.344 99.2303 46.344H99.8063C99.8863 46.344 99.9503 46.368 99.9983 46.416C100.054 46.456 100.078 46.516 100.07 46.596C100.062 46.716 99.9983 46.864 99.8783 47.04C99.7583 47.208 99.5863 47.376 99.3623 47.544C99.1383 47.712 98.8663 47.852 98.5463 47.964C98.2263 48.068 97.8583 48.12 97.4423 48.12ZM95.8103 44.424H99.0983V44.388C99.0983 44.028 99.0303 43.708 98.8943 43.428C98.7663 43.148 98.5783 42.928 98.3303 42.768C98.0823 42.6 97.7863 42.516 97.4423 42.516C97.0983 42.516 96.8023 42.6 96.5543 42.768C96.3143 42.928 96.1303 43.148 96.0023 43.428C95.8743 43.708 95.8103 44.028 95.8103 44.388V44.424Z" fill="#343B4E"/>
<defs>
<filter id="filter0_d_205_439" x="0" y="0" width="144" height="96" filterUnits="userSpaceOnUse" color-interpolation-filters="sRGB">
<feFlood flood-opacity="0" result="BackgroundImageFix"/>
<feColorMatrix in="SourceAlpha" type="matrix" values="0 0 0 0 0 0 0 0 0 0 0 0 0 0 0 0 0 0 127 0" result="hardAlpha"/>
<feMorphology radius="27" operator="erode" in="SourceAlpha" result="effect1_dropShadow_205_439"/>
<feOffset dy="4"/>
<feGaussianBlur stdDeviation="20.5"/>
<feComposite in2="hardAlpha" operator="out"/>
<feColorMatrix type="matrix" values="0 0 0 0 0 0 0 0 0 0 0 0 0 0 0 0 0 0 0.2 0"/>
<feBlend mode="normal" in2="BackgroundImageFix" result="effect1_dropShadow_205_439"/>
<feBlend mode="normal" in="SourceGraphic" in2="effect1_dropShadow_205_439" result="shape"/>
</filter>
</defs>
</svg>
