<svg width="143" height="96" viewBox="0 0 143 96" fill="none" xmlns="http://www.w3.org/2000/svg">
<g opacity="0.1" filter="url(#filter0_d_205_438)">
<rect x="14.5" y="10.5" width="114" height="67" rx="9.5" stroke="#343B4E" shape-rendering="crispEdges"/>
</g>
<path d="M68.5665 43.2295V48.827H66.8047V35.001H71.4749C72.6023 34.976 73.6896 35.4077 74.4998 36.198C75.3196 36.942 75.7801 38.006 75.7629 39.1162C75.7877 40.2342 75.3253 41.3059 74.4998 42.0518C73.6819 42.8382 72.673 43.2314 71.4749 43.2295H68.5665ZM68.5665 36.703V41.5314H71.5188C72.1743 41.5507 72.8049 41.2924 73.2616 40.8163C74.1864 39.9104 74.2093 38.4166 73.3074 37.4836C73.2921 37.4682 73.2768 37.4509 73.2616 37.4374C72.8125 36.9517 72.1762 36.6857 71.5188 36.703H68.5665ZM79.8216 39.0584C81.1248 39.0584 82.151 39.4092 82.9039 40.1108C83.6567 40.8124 84.0332 41.7762 84.0332 42.9963V48.8289H82.3497V47.5143H82.2733C81.5433 48.5957 80.5726 49.1373 79.363 49.1373C78.3292 49.1373 77.4655 48.8289 76.7699 48.2102C76.0954 47.6358 75.7113 46.7857 75.7266 45.8933C75.7266 44.9141 76.0935 44.1354 76.8273 43.5572C77.561 42.9789 78.5394 42.6879 79.7662 42.6879C80.8114 42.6879 81.6732 42.8806 82.3497 43.2661V42.8594C82.3535 42.2503 82.086 41.674 81.6217 41.2885C81.1554 40.8645 80.5496 40.6332 79.921 40.6409C78.9388 40.6409 78.1591 41.0592 77.5859 41.8957L76.0361 40.9107C76.8865 39.6752 78.1496 39.0584 79.8216 39.0584ZM77.5419 45.9319C77.54 46.3906 77.7579 46.8224 78.1247 47.0903C78.5146 47.3987 78.998 47.5645 79.4929 47.5529C80.2363 47.551 80.949 47.2522 81.4745 46.7221C82.0573 46.167 82.3497 45.5194 82.3497 44.7715C81.7994 44.3301 81.035 44.1085 80.0528 44.1085C79.3382 44.1085 78.74 44.2819 78.2623 44.6308C77.7827 44.9874 77.5419 45.4172 77.5419 45.9319ZM93.7022 39.3668L87.8225 53H86.0052L88.1874 48.2294L84.3179 39.3668H86.2326L89.0282 46.1632H89.0664L91.7856 39.3668H93.7022Z" fill="#5F6368"/>
<path d="M63.1433 43.6231C63.1433 43.0814 63.0994 42.5417 63.0077 42.0078H55.5801V45.0667H59.8337C59.6579 46.0536 59.0904 46.9268 58.261 47.48V49.4672H60.8006C62.2873 48.0871 63.1433 46.0421 63.1433 43.6231Z" fill="#4285F4"/>
<path d="M55.5808 51.3872C57.7057 51.3872 59.4962 50.6837 60.8013 49.4694L58.2618 47.4821C57.5547 47.9659 56.6451 48.2416 55.5808 48.2416C53.5266 48.2416 51.7839 46.8441 51.159 44.9629H48.5449V47.0099C49.8825 49.6949 52.6036 51.3872 55.5808 51.3872Z" fill="#34A853"/>
<path d="M51.1614 44.9617C50.8308 43.9767 50.8308 42.907 51.1614 41.9201V39.875H48.5454C47.4276 42.1205 47.4276 44.7651 48.5454 47.0106L51.1614 44.9617Z" fill="#FBBC04"/>
<path d="M55.5808 38.6442C56.7044 38.6268 57.7879 39.0528 58.6019 39.8354L60.851 37.5686C59.4255 36.2194 57.5375 35.4773 55.5808 35.4985C52.6036 35.4985 49.8806 37.1928 48.5449 39.8758L51.1609 41.9228C51.7839 40.0397 53.5266 38.6442 55.5808 38.6442Z" fill="#EA4335"/>
<defs>
<filter id="filter0_d_205_438" x="0" y="0" width="143" height="96" filterUnits="userSpaceOnUse" color-interpolation-filters="sRGB">
<feFlood flood-opacity="0" result="BackgroundImageFix"/>
<feColorMatrix in="SourceAlpha" type="matrix" values="0 0 0 0 0 0 0 0 0 0 0 0 0 0 0 0 0 0 127 0" result="hardAlpha"/>
<feMorphology radius="27" operator="erode" in="SourceAlpha" result="effect1_dropShadow_205_438"/>
<feOffset dy="4"/>
<feGaussianBlur stdDeviation="20.5"/>
<feComposite in2="hardAlpha" operator="out"/>
<feColorMatrix type="matrix" values="0 0 0 0 0 0 0 0 0 0 0 0 0 0 0 0 0 0 0.2 0"/>
<feBlend mode="normal" in2="BackgroundImageFix" result="effect1_dropShadow_205_438"/>
<feBlend mode="normal" in="SourceGraphic" in2="effect1_dropShadow_205_438" result="shape"/>
</filter>
</defs>
</svg>
