<svg width="144" height="96" viewBox="0 0 144 96" fill="none" xmlns="http://www.w3.org/2000/svg">
<g opacity="0.5">
<rect width="116" height="68" transform="translate(14 10)" fill="white"/>
<g opacity="0.1" filter="url(#filter0_d_205_437)">
<rect x="14.5" y="10.5" width="115" height="67" rx="9.5" stroke="#343B4E" shape-rendering="crispEdges"/>
</g>
<path d="M59.5873 35C58.8692 35.0343 57.9825 35.4898 57.476 36.1301C57.0116 36.6822 56.6145 37.5787 56.7151 38.4205C57.5261 38.4908 58.3367 37.999 58.8432 37.3758C59.342 36.7354 59.6716 35.8769 59.5873 35L59.5873 35ZM66.4806 36.7128V49.5711H68.5231V45.285H71.318C73.8833 45.285 75.7254 43.5063 75.7254 40.9989C75.7254 38.4915 73.917 36.7128 71.3852 36.7128H66.4806ZM68.5231 38.4272H70.888C72.6484 38.4272 73.683 39.3744 73.683 40.9989C73.683 42.6233 72.657 43.5706 70.888 43.5706H68.5231V38.4272ZM59.4933 38.8558C58.3108 38.8558 57.4654 39.4987 56.9133 39.4987C56.3526 39.4987 55.5159 38.8642 54.5484 38.8642C53.3659 38.8642 52.2078 39.6041 51.5972 40.6824C50.3425 42.8384 51.2715 46.0299 52.4841 47.7847C53.0783 48.6539 53.7959 49.5711 54.7634 49.5711C55.65 49.5377 55.9501 49.0353 57.0208 49.0353C58.0992 49.0353 58.4183 49.5711 59.3858 49.5711C60.3533 49.5711 60.939 48.6874 61.5324 47.8182C62.21 46.8324 62.4869 45.8713 62.5032 45.8208C62.4869 45.8045 60.6308 45.0941 60.6136 42.9544C60.5973 41.1663 62.0767 40.3136 62.1438 40.2639C61.307 39.0278 59.9233 38.8558 59.6008 38.8558H59.4933ZM80.4116 40.1417C78.2711 40.1417 76.6892 41.3379 76.6307 42.9829H78.4448C78.5944 42.2011 79.3363 41.6887 80.3528 41.6887C81.5852 41.6887 82.2811 42.2513 82.2811 43.2859L82.2828 43.9992L79.7616 44.1314C77.4216 44.2694 76.1554 45.2066 76.1554 46.8354C76.1554 48.4804 77.4628 49.5728 79.3367 49.5728C80.6025 49.5728 81.7773 48.9456 82.3096 47.9521H82.3516V49.474H84.216V43.1553C84.2169 41.3217 82.719 40.1417 80.4116 40.1417V40.1417ZM84.9702 40.1417L88.4168 49.5276L88.2321 50.0985C87.9208 51.0663 87.4167 51.4379 86.5172 51.4379C86.3632 51.4379 86.0718 51.4224 85.9377 51.4061V52.9531C86.0736 52.9831 86.5465 53 86.6935 53C88.6775 53 89.6113 52.256 90.4274 49.998L94 40.1417H91.9324L89.5355 47.7579H89.4935L87.0966 40.1417H84.9702ZM82.2828 45.285L82.276 46.0284C82.276 47.2173 81.2432 48.0643 79.8775 48.0643C78.8034 48.0643 78.1206 47.56 78.1206 46.7868C78.1206 45.9887 78.7789 45.5245 80.0371 45.4508L82.2828 45.285Z" fill="#272727"/>
</g>
<defs>
<filter id="filter0_d_205_437" x="0" y="0" width="144" height="96" filterUnits="userSpaceOnUse" color-interpolation-filters="sRGB">
<feFlood flood-opacity="0" result="BackgroundImageFix"/>
<feColorMatrix in="SourceAlpha" type="matrix" values="0 0 0 0 0 0 0 0 0 0 0 0 0 0 0 0 0 0 127 0" result="hardAlpha"/>
<feMorphology radius="27" operator="erode" in="SourceAlpha" result="effect1_dropShadow_205_437"/>
<feOffset dy="4"/>
<feGaussianBlur stdDeviation="20.5"/>
<feComposite in2="hardAlpha" operator="out"/>
<feColorMatrix type="matrix" values="0 0 0 0 0 0 0 0 0 0 0 0 0 0 0 0 0 0 0.2 0"/>
<feBlend mode="normal" in2="BackgroundImageFix" result="effect1_dropShadow_205_437"/>
<feBlend mode="normal" in="SourceGraphic" in2="effect1_dropShadow_205_437" result="shape"/>
</filter>
</defs>
</svg>
