<svg width="60" height="60" viewBox="0 0 60 60" fill="none" xmlns="http://www.w3.org/2000/svg">
<path d="M36.6401 28.554C36.6959 28.9914 36.3545 29.3785 35.9135 29.3785H35.8917C35.5248 29.3785 35.2133 29.1066 35.1666 28.7423C34.8809 26.5167 33.1177 24.753 30.8922 24.4678C30.5278 24.4211 30.2559 24.1096 30.2559 23.7422V23.7204C30.2559 23.2794 30.643 22.9385 31.0799 22.9943C33.9757 23.3642 36.2697 25.6582 36.6401 28.554L36.6401 28.554Z" fill="#FF7826"/>
<path d="M39.6303 28.5865C39.6658 29.0122 39.3274 29.377 38.9001 29.377H38.8788C38.4962 29.377 38.1816 29.0817 38.1492 28.7001C37.8249 24.8646 34.7677 21.8079 30.9322 21.4837C30.5512 21.4512 30.2559 21.1361 30.2559 20.7535V20.7322C30.2559 20.305 30.6201 19.967 31.0459 20.0026C35.6111 20.3821 39.2508 24.0213 39.6303 28.5865H39.6303Z" fill="#FF7826"/>
<path d="M33.5972 28.4545C33.7256 28.9193 33.3724 29.378 32.8904 29.378H32.8681C32.5433 29.378 32.2516 29.1649 32.1653 28.8513C31.9811 28.181 31.4528 27.6527 30.7821 27.4681C30.4685 27.3818 30.2559 27.0906 30.2559 26.7653V26.743C30.2559 26.261 30.7141 25.9083 31.1788 26.0362C32.3511 26.3594 33.274 27.2824 33.5972 28.4545H33.5972Z" fill="#FF7826"/>
<path d="M36.5061 35.6806L34.3654 33.5399C33.7677 32.9417 32.7985 32.9417 32.2008 33.5399L31.3098 34.4309L25.5689 28.69L26.4599 27.799C27.0576 27.2013 27.0576 26.2321 26.4599 25.6344L24.3191 23.4936C23.7214 22.8954 22.7522 22.8954 22.1545 23.4936L21.2635 24.3846C19.5788 26.0687 19.5788 28.7996 21.2635 30.4837L29.5155 38.7363C31.1978 40.4196 33.9305 40.4209 35.6151 38.7363L36.5061 37.8453C37.1039 37.2476 37.1039 36.2784 36.5061 35.6806Z" fill="#FF7826"/>
<path d="M36.505 35.6852C37.1027 36.2829 37.1027 37.2521 36.505 37.8498L35.614 38.7409L31.3086 34.4354L32.1996 33.5444C32.7973 32.9461 33.7665 32.9461 34.3642 33.5444L36.505 35.6852Z" fill="#FF7826"/>
<path d="M26.4581 25.6344C27.0559 26.2321 27.0559 27.2013 26.4581 27.799L25.5671 28.69L21.2617 24.3846L22.1527 23.4936C22.7505 22.8954 23.7196 22.8954 24.3174 23.4936L26.4581 25.6344Z" fill="#FF7826"/>
<rect x="0.5" y="0.5" width="59" height="59" rx="29.5" stroke="#FF7826"/>
</svg>
