<svg width="11" height="10" viewBox="0 0 11 10" fill="none" xmlns="http://www.w3.org/2000/svg">
<path fill-rule="evenodd" clip-rule="evenodd" d="M10.6774 4.99998L10.6766 4.99999L10.6744 5.00002L10.6706 5.00012L10.6653 5.0003L10.6584 5.00061L10.6501 5.00106L10.6403 5.00169L10.629 5.00253L10.6162 5.00361L10.6019 5.00496L10.5861 5.0066L10.5689 5.00856L10.5503 5.01087L10.5302 5.01357L10.5087 5.01667L10.4858 5.0202L10.4615 5.02419L10.4359 5.02867L10.4089 5.03366L10.3805 5.03919L10.3509 5.04527L10.32 5.05195L10.2878 5.05923L10.2543 5.06714L10.2196 5.0757L10.1837 5.08493L10.1467 5.09487L10.1085 5.10551L10.0691 5.11689L10.0287 5.12902L9.98718 5.14193L9.94463 5.15562L9.90106 5.17011L9.85651 5.18542L9.81101 5.20157L9.76458 5.21856L9.71726 5.23642L9.66908 5.25514L9.62007 5.27475L9.57027 5.29525L9.5197 5.31666L9.4684 5.33897L9.41641 5.3622L9.36376 5.38636L9.31048 5.41145L9.25661 5.43747L9.20218 5.46443L9.14723 5.49233L9.0918 5.52118L9.03592 5.55096L8.97962 5.58169L8.92294 5.61336L8.86592 5.64597L8.8086 5.67951L8.75101 5.71398L8.69318 5.74938L8.63516 5.7857L8.57697 5.82293L8.51866 5.86106L8.46026 5.90009L8.4018 5.94L8.34332 5.98078L8.28486 6.02242L8.22645 6.06491L8.16813 6.10824L8.10993 6.15238L8.05187 6.19732L7.99401 6.24305L7.93636 6.28955L7.87897 6.33679L7.82186 6.38477L7.76507 6.43345L7.70863 6.48282L7.65256 6.53286L7.59691 6.58354L7.54169 6.63484L7.48693 6.68674L7.43268 6.73921L7.37894 6.79222L7.32576 6.84575L7.27315 6.89977L7.22114 6.95425L7.16975 7.00917L7.11902 7.06449L7.06896 7.12019L7.01959 7.17623L6.97094 7.23259L6.92303 7.28923L6.87587 7.34613L6.82949 7.40324L6.78391 7.46055L6.73913 7.518L6.69519 7.57558L6.65208 7.63324L6.60984 7.69095L6.56846 7.74869L6.52796 7.80641L6.48836 7.86407L6.44967 7.92165L6.41189 7.97911L6.37503 8.03641L6.3391 8.09352L6.30411 8.15041L6.27006 8.20702L6.23696 8.26334L6.20481 8.31933L6.17361 8.37494L6.14336 8.43015L6.11408 8.48492L6.08574 8.53921L6.05836 8.59299L6.03193 8.64622L6.00644 8.69887L5.9819 8.75091L5.95829 8.80229L5.93562 8.85299L5.91386 8.90298L5.89303 8.95221L5.87309 9.00066L5.85406 9.0483L5.8359 9.09509L5.81862 9.141L5.8022 9.186L5.78662 9.23005L5.77188 9.27315L5.75795 9.31524L5.74482 9.3563L5.73247 9.39631L5.72088 9.43524L5.71004 9.47305L5.69992 9.50974L5.69051 9.54526L5.68179 9.57959L5.67372 9.61272L5.6663 9.64462L5.6595 9.67527L5.65329 9.70464L5.64764 9.73272L5.64255 9.75948L5.63797 9.78491L5.63389 9.80899L5.63027 9.8317L5.6271 9.85304L5.62434 9.87297L5.62197 9.89149L5.61995 9.90859L5.61826 9.92426L5.61688 9.93847L5.61577 9.95123L5.6149 9.96252L5.61424 9.97234L5.61377 9.98068L5.61345 9.98753L5.61325 9.9929L5.61315 9.99676L5.61311 9.99913L5.61307 9.99724L5.61298 9.99361L5.6128 9.98849L5.6125 9.98187L5.61205 9.97377L5.61143 9.96419L5.6106 9.95313L5.60952 9.9406L5.60818 9.92662L5.60655 9.91118L5.60459 9.89431L5.60227 9.87602L5.59957 9.85631L5.59647 9.8352L5.59293 9.8127L5.58892 9.78884L5.58442 9.76362L5.57941 9.73707L5.57386 9.7092L5.56774 9.68003L5.56103 9.64959L5.55371 9.61789L5.54575 9.58495L5.53713 9.55081L5.52783 9.51547L5.51783 9.47897L5.5071 9.44133L5.49564 9.40258L5.48341 9.36274L5.4704 9.32185L5.4566 9.27992L5.44199 9.23698L5.42654 9.19308L5.41026 9.14822L5.39311 9.10246L5.3751 9.05581L5.35621 9.0083L5.33642 8.95998L5.31572 8.91087L5.29412 8.861L5.27159 8.81041L5.24813 8.75913L5.22374 8.7072L5.1984 8.65464L5.17212 8.6015L5.14489 8.54781L5.11671 8.4936L5.08757 8.4389L5.05748 8.38376L5.02643 8.32821L4.99443 8.27228L4.96148 8.21601L4.92758 8.15944L4.89274 8.1026L4.85696 8.04552L4.82025 7.98825L4.78262 7.93081L4.74407 7.87325L4.70461 7.81559L4.66426 7.75788L4.62302 7.70015L4.58091 7.64243L4.53794 7.58476L4.49413 7.52716L4.44948 7.46969L4.40403 7.41236L4.35777 7.35521L4.31074 7.29828L4.26295 7.24159L4.21441 7.18519L4.16516 7.12909L4.11521 7.07334L4.06458 7.01795L4.0133 6.96297L3.96139 6.90841L3.90887 6.85432L3.85577 6.80071L3.80213 6.74761L3.74795 6.69506L3.69327 6.64307L3.63813 6.59167L3.58254 6.54089L3.52653 6.49075L3.47015 6.44127L3.41341 6.39247L3.35635 6.34438L3.299 6.29702L3.2414 6.2504L3.18356 6.20455L3.12554 6.15948L3.06736 6.11521L3.00905 6.07176L2.95065 6.02913L2.8922 5.98735L2.83372 5.94643L2.77526 5.90638L2.71685 5.86721L2.65852 5.82894L2.60031 5.79157L2.54226 5.7551L2.4844 5.71956L2.42676 5.68494L2.36939 5.65124L2.31233 5.61849L2.25559 5.58667L2.19923 5.55579L2.14328 5.52586L2.08777 5.49686L2.03274 5.46881L1.97823 5.4417L1.92427 5.41553L1.87089 5.3903L1.81814 5.36599L1.76604 5.34261L1.71463 5.32015L1.66394 5.2986L1.61401 5.27796L1.56488 5.25821L1.51656 5.23934L1.4691 5.22135L1.42253 5.20422L1.37688 5.18794L1.33217 5.17249L1.28845 5.15787L1.24574 5.14405L1.20406 5.13103L1.16345 5.11877L1.12394 5.10727L1.08554 5.09651L1.0483 5.08647L1.01222 5.07712L0.977348 5.06845L0.943695 5.06044L0.911286 5.05306L0.880145 5.0463L0.850292 5.04012L0.821749 5.03451L0.794536 5.02943L0.76867 5.02487L0.74417 5.02081L0.721053 5.0172L0.699335 5.01403L0.679031 5.01128L0.660156 5.0089L0.642722 5.00689L0.626742 5.0052L0.612226 5.00381L0.599185 5.00269L0.587628 5.00181L0.577563 5.00115L0.568998 5.00067L0.561937 5.00034L0.556386 5.00014L0.55235 5.00003L0.54983 4.99999L0.548828 4.99998L0.549346 4.99998L0.551382 4.99995L0.554936 4.99987L0.560005 4.9997L0.566585 4.99942L0.574672 4.99899L0.58426 4.99838L0.595342 4.99758L0.607911 4.99654L0.621958 4.99524L0.637473 4.99365L0.654446 4.99174L0.672863 4.98948L0.692714 4.98685L0.713983 4.98382L0.736656 4.98035L0.760717 4.97644L0.786149 4.97204L0.812936 4.96713L0.841058 4.96169L0.870495 4.9557L0.901228 4.94912L0.933235 4.94194L0.966495 4.93413L1.00098 4.92567L1.03668 4.91654L1.07355 4.90673L1.11158 4.8962L1.15074 4.88493L1.19101 4.87292L1.23235 4.86014L1.27473 4.84658L1.31814 4.83221L1.36253 4.81703L1.40789 4.80102L1.45417 4.78416L1.50135 4.76645L1.54939 4.74786L1.59827 4.72839L1.64795 4.70804L1.6984 4.68678L1.74959 4.66461L1.80147 4.64152L1.85402 4.61751L1.9072 4.59257L1.96098 4.5667L2.01532 4.53989L2.07019 4.51214L2.12555 4.48344L2.18136 4.45381L2.2376 4.42323L2.29422 4.39171L2.35118 4.35925L2.40846 4.32586L2.46601 4.29153L2.5238 4.25628L2.5818 4.22011L2.63996 4.18303L2.69826 4.14504L2.75665 4.10615L2.8151 4.06638L2.87357 4.02574L2.93204 3.98423L2.99046 3.94187L3.0488 3.89868L3.10702 3.85467L3.1651 3.80985L3.223 3.76425L3.28068 3.71787L3.33811 3.67074L3.39527 3.62288L3.45211 3.57431L3.50861 3.52505L3.56474 3.47511L3.62047 3.42453L3.67576 3.37333L3.73059 3.32153L3.78492 3.26915L3.83874 3.21622L3.89202 3.16277L3.94472 3.10883L3.99683 3.05442L4.04832 2.99957L4.09915 2.94431L4.14932 2.88867L4.1988 2.83268L4.24757 2.77637L4.2956 2.71977L4.34288 2.66291L4.38938 2.60583L4.43509 2.54855L4.48 2.49112L4.52408 2.43356L4.56732 2.37591L4.6097 2.3182L4.65122 2.26047L4.69185 2.20275L4.7316 2.14507L4.77044 2.08747L4.80836 2.02999L4.84537 1.97266L4.88145 1.91552L4.91659 1.8586L4.95079 1.80194L4.98404 1.74557L5.01634 1.68953L5.04769 1.63385L5.07809 1.57858L5.10753 1.52374L5.13602 1.46937L5.16355 1.4155L5.19014 1.36218L5.21577 1.30944L5.24046 1.2573L5.26422 1.20581L5.28704 1.155L5.30894 1.1049L5.32992 1.05554L5.35 1.00696L5.36918 0.959195L5.38747 0.91227L5.40489 0.866219L5.42145 0.821072L5.43716 0.77686L5.45203 0.733613L5.46609 0.691361L5.47935 0.650131L5.49183 0.609952L5.50353 0.570852L5.51449 0.532856L5.52472 0.495992L5.53424 0.460284L5.54308 0.425756L5.55124 0.392433L5.55877 0.360337L5.56567 0.32949L5.57197 0.299915L5.5777 0.27163L5.58288 0.244657L5.58754 0.219012L5.5917 0.194715L5.59539 0.171783L5.59863 0.15023L5.60146 0.130072L5.60389 0.111323L5.60596 0.0939968L5.6077 0.0781045L5.60913 0.0636575L5.61028 0.0506658L5.61119 0.0391387L5.61188 0.029084L5.61238 0.0205089L5.61272 0.0134193L5.61293 0.00782027L5.61305 0.00371561L5.61309 0.00110825L5.6131 0L5.61311 0.00039164L5.61313 0.0022829L5.61321 0.00567244L5.61337 0.0105579L5.61365 0.0169359L5.61407 0.0248019L5.61467 0.0341504L5.61546 0.044975L5.6165 0.057268L5.61779 0.0710208L5.61938 0.0862239L5.62129 0.102867L5.62354 0.120937L5.62618 0.140424L5.62922 0.161312L5.63269 0.183587L5.63662 0.207234L5.64103 0.232237L5.64596 0.258578L5.65143 0.286238L5.65745 0.315199L5.66407 0.345441L5.67129 0.376943L5.67915 0.409682L5.68766 0.443638L5.69685 0.478785L5.70674 0.5151L5.71735 0.552558L5.72869 0.591134L5.7408 0.630801L5.75368 0.671532L5.76735 0.7133L5.78184 0.756075L5.79715 0.799829L5.8133 0.844533L5.8303 0.890156L5.84818 0.936668L5.86693 0.984037L5.88658 1.03223L5.90713 1.08122L5.92859 1.13097L5.95097 1.18145L5.97428 1.23262L5.99852 1.28445L6.02371 1.33691L6.04984 1.38996L6.07691 1.44357L6.10495 1.4977L6.13393 1.55232L6.16387 1.60739L6.19477 1.66288L6.22662 1.71875L6.25942 1.77497L6.29316 1.83149L6.32785 1.88829L6.36348 1.94534L6.40005 2.00258L6.43753 2.05999L6.47594 2.11754L6.51525 2.17518L6.55546 2.23289L6.59656 2.29062L6.63853 2.34834L6.68137 2.40603L6.72505 2.46363L6.76956 2.52113L6.81489 2.57849L6.86102 2.63566L6.90793 2.69263L6.9556 2.74936L7.00402 2.80581L7.05316 2.86196L7.103 2.91777L7.15352 2.97322L7.2047 3.02827L7.25651 3.08289L7.30893 3.13706L7.36194 3.19075L7.4155 3.24393L7.4696 3.29657L7.52419 3.34865L7.57927 3.40014L7.63479 3.45103L7.69073 3.50127L7.74705 3.55086L7.80374 3.59976L7.86075 3.64797L7.91805 3.69545L7.97562 3.74218L8.03342 3.78816L8.09142 3.83336L8.14958 3.87775L8.20787 3.92134L8.26625 3.9641L8.3247 4.00601L8.38317 4.04707L8.44164 4.08726L8.50006 4.12657L8.55841 4.16499L8.61664 4.20251L8.67472 4.23911L8.73261 4.27481L8.79028 4.30957L8.8477 4.34341L8.90482 4.37632L8.9616 4.40829L9.01803 4.43932L9.07404 4.4694L9.12963 4.49854L9.18473 4.52675L9.23933 4.554L9.29338 4.58033L9.34685 4.60571L9.39971 4.63016L9.45192 4.65369L9.50344 4.6763L9.55424 4.69799L9.60429 4.71878L9.65356 4.73867L9.70201 4.75768L9.74961 4.77581L9.79632 4.79307L9.84212 4.80949L9.88698 4.82506L9.93086 4.83982L9.97374 4.85376L10.0156 4.86691L10.0564 4.87929L10.0961 4.89091L10.1346 4.90178L10.1721 4.91194L10.2083 4.9214L10.2434 4.93017L10.2772 4.93829L10.3098 4.94576L10.3412 4.95263L10.3712 4.9589L10.4 4.9646L10.4274 4.96976L10.4535 4.9744L10.4782 4.97854L10.5016 4.98222L10.5235 4.98545L10.544 4.98827L10.5631 4.99071L10.5808 4.99278L10.597 4.99452L10.6118 4.99595L10.625 4.99711L10.6368 4.99803L10.6471 4.99872L10.6559 4.99923L10.6632 4.99958L10.669 4.9998L10.6733 4.99992L10.6761 4.99997L10.6774 4.99998Z" fill="#F9C758"/>
</svg>
