<svg width="105" height="30" viewBox="0 0 105 30" fill="none" xmlns="http://www.w3.org/2000/svg">
<path d="M0 1.1843C0 0.530227 0.530227 0 1.1843 0H18.6198C18.6198 3.57835 15.719 6.47917 12.1407 6.47917H1.1843C0.530228 6.47917 0 5.94894 0 5.29487V1.1843Z" fill="#8B4EE7"/>
<path d="M0 9.28293C0 8.62886 0.530227 8.09863 1.1843 8.09863H14.3575C14.3575 11.677 11.4566 14.5778 7.87829 14.5778H1.1843C0.530227 14.5778 0 14.0476 0 13.3935V9.28293Z" fill="#F9C758"/>
<path d="M1.1843 16.4219C0.530227 16.4219 0 16.9521 0 17.6062L0 27.3694C3.59301 27.3694 6.50572 24.4567 6.50572 20.8637V17.4023C6.50572 16.8608 6.06676 16.4219 5.52527 16.4219H1.1843Z" fill="#F97228"/>
<path d="M30.2662 22.6554V6.26364C30.2662 6.07899 30.3252 5.92792 30.4432 5.81041C30.5611 5.69291 30.7044 5.63416 30.873 5.63416H41.8456C42.031 5.63416 42.1827 5.69291 42.3007 5.81041C42.4187 5.92792 42.4777 6.07899 42.4777 6.26364V8.0262C42.4777 8.21085 42.4187 8.36193 42.3007 8.47943C42.1827 8.58015 42.031 8.63051 41.8456 8.63051H33.7299V13.4146H41.34C41.5254 13.4146 41.6771 13.4733 41.795 13.5909C41.913 13.7084 41.972 13.8594 41.972 14.0441V15.8066C41.972 15.9745 41.913 16.1172 41.795 16.2347C41.6771 16.3522 41.5254 16.4109 41.34 16.4109H33.7299V18.4369C33.7299 19.5142 30.2662 23.7421 30.2662 22.6554Z" fill="#343B4E"/>
<path d="M45.3694 22.6554V10.7708C45.3694 10.6029 45.4284 10.4602 45.5464 10.3427C45.6643 10.2252 45.8076 10.1665 45.9762 10.1665H48.0746C48.26 10.1665 48.4033 10.2252 48.5044 10.3427C48.6224 10.4602 48.6814 10.6029 48.6814 10.7708V18.6203C48.6814 19.6937 45.3694 23.7222 45.3694 22.6554ZM45.875 8.00102C45.6896 8.00102 45.5379 7.95066 45.4199 7.84994C45.3188 7.73244 45.2682 7.58136 45.2682 7.39671V5.5838C45.2682 5.41594 45.3188 5.27325 45.4199 5.15575C45.5379 5.03824 45.6896 4.97949 45.875 4.97949H48.1757C48.3611 4.97949 48.5128 5.03824 48.6308 5.15575C48.7488 5.27325 48.8078 5.41594 48.8078 5.5838V7.39671C48.8078 7.58136 48.7488 7.73244 48.6308 7.84994C48.5128 7.95066 48.3611 8.00102 48.1757 8.00102H45.875Z" fill="#343B4E"/>
<path d="M51.4795 23.2597C51.3278 23.2597 51.1929 23.2094 51.0749 23.1087C50.9738 22.9912 50.9232 22.8569 50.9232 22.7058C50.9232 22.6554 50.9317 22.5967 50.9485 22.5295C50.9822 22.4624 51.0328 22.3785 51.1002 22.2778L55.3983 16.5368L51.4036 11.1484C51.3531 11.0645 51.3109 10.989 51.2772 10.9218C51.2603 10.8547 51.2519 10.7875 51.2519 10.7204C51.2519 10.5693 51.3025 10.4434 51.4036 10.3427C51.5216 10.2252 51.6564 10.1665 51.8081 10.1665H54.0077C54.21 10.1665 54.3617 10.2168 54.4628 10.3175C54.5639 10.4182 54.6398 10.5106 54.6904 10.5945L57.5473 14.3714L60.4042 10.5945C60.4716 10.5106 60.5475 10.4182 60.6318 10.3175C60.7329 10.2168 60.8846 10.1665 61.0869 10.1665H63.1853C63.337 10.1665 63.4634 10.2252 63.5645 10.3427C63.6825 10.4434 63.7415 10.5609 63.7415 10.6952C63.7415 10.7792 63.7247 10.8547 63.691 10.9218C63.6741 10.989 63.6404 11.0645 63.5898 11.1484L59.5446 16.5872L63.8679 22.2778C63.9354 22.3785 63.9775 22.4624 63.9944 22.5295C64.0281 22.5967 64.0449 22.6554 64.0449 22.7058C64.0449 22.8569 63.9859 22.9912 63.8679 23.1087C63.7668 23.2094 63.6404 23.2597 63.4887 23.2597H61.188C61.0026 23.2597 60.8593 23.2178 60.7582 23.1338C60.6571 23.0331 60.5728 22.9408 60.5054 22.8569L57.4714 18.8533L54.387 22.8569C54.3195 22.9408 54.2353 23.0331 54.1341 23.1338C54.0499 23.2178 53.9066 23.2597 53.7043 23.2597H51.4795Z" fill="#343B4E"/>
<path d="M66.3318 27.4395V10.7708C66.3318 10.6029 66.3908 10.4602 66.5088 10.3427C66.6268 10.2252 66.77 10.1665 66.9386 10.1665H68.9359C69.1213 10.1665 69.2646 10.2252 69.3657 10.3427C69.4837 10.4602 69.5427 10.6029 69.5427 10.7708V11.7779C69.9472 11.2408 70.4782 10.7959 71.1355 10.4434C71.7929 10.0909 72.6103 9.91466 73.5879 9.91466C74.4812 9.91466 75.2566 10.0573 75.9139 10.3427C76.5713 10.6281 77.1191 11.0393 77.5573 11.5765C77.9955 12.0969 78.3326 12.718 78.5686 13.4398C78.8046 14.1616 78.9394 14.9589 78.9731 15.8318C78.99 16.1172 78.9984 16.4109 78.9984 16.7131C78.9984 17.0153 78.99 17.3174 78.9731 17.6196C78.9563 18.4589 78.8298 19.2394 78.5939 19.9612C78.3579 20.6663 78.0124 21.2874 77.5573 21.8245C77.1191 22.3449 76.5713 22.7562 75.9139 23.0583C75.2566 23.3605 74.4812 23.5115 73.5879 23.5115C72.6777 23.5115 71.9024 23.3521 71.2619 23.0331C70.6214 22.6974 70.0989 22.261 69.6944 21.7238V24.6883C69.6944 25.7672 66.3318 28.5118 66.3318 27.4395ZM72.6525 20.8173C73.3772 20.8173 73.9419 20.6663 74.3464 20.3641C74.7509 20.0452 75.0374 19.6339 75.206 19.1303C75.3914 18.6267 75.501 18.0728 75.5347 17.4685C75.5684 16.9649 75.5684 16.4613 75.5347 15.9577C75.501 15.3534 75.3914 14.7995 75.206 14.2959C75.0374 13.7923 74.7509 13.3894 74.3464 13.0873C73.9419 12.7683 73.3772 12.6089 72.6525 12.6089C71.9614 12.6089 71.3968 12.7683 70.9585 13.0873C70.5372 13.4062 70.2253 13.8175 70.0231 14.3211C69.8377 14.8079 69.7281 15.3114 69.6944 15.8318C69.6775 16.134 69.6691 16.4529 69.6691 16.7886C69.6691 17.1244 69.6775 17.4517 69.6944 17.7706C69.7113 18.2742 69.8292 18.761 70.0484 19.231C70.2675 19.6843 70.5877 20.062 71.0091 20.3641C71.4305 20.6663 71.9783 20.8173 72.6525 20.8173Z" fill="#343B4E"/>
<path d="M87.4999 23.5115C85.6289 23.5115 84.1457 22.9744 83.0501 21.9001C81.9545 20.8257 81.3646 19.2982 81.2803 17.3174C81.2635 17.1495 81.2551 16.9397 81.2551 16.6879C81.2551 16.4193 81.2635 16.2095 81.2803 16.0584C81.3478 14.7995 81.6343 13.7084 82.1399 12.7851C82.6625 11.8619 83.3788 11.1568 84.289 10.67C85.1991 10.1665 86.2694 9.91466 87.4999 9.91466C88.8651 9.91466 90.0113 10.2 90.9383 10.7708C91.8653 11.3247 92.5648 12.1053 93.0368 13.1124C93.5087 14.1028 93.7447 15.2527 93.7447 16.562V17.0908C93.7447 17.2587 93.6857 17.4013 93.5677 17.5188C93.4497 17.6363 93.298 17.6951 93.1126 17.6951H84.7188C84.7188 17.6951 84.7188 17.7203 84.7188 17.7706C84.7188 17.821 84.7188 17.863 84.7188 17.8965C84.7356 18.484 84.8452 19.0296 85.0474 19.5332C85.2666 20.02 85.5784 20.4145 85.9829 20.7166C86.4043 21.0188 86.9015 21.1699 87.4746 21.1699C87.9465 21.1699 88.3426 21.1027 88.6629 20.9684C88.9831 20.8173 89.2444 20.6495 89.4466 20.4648C89.6489 20.2802 89.7922 20.1291 89.8764 20.0116C90.0281 19.8102 90.1461 19.6927 90.2304 19.6591C90.3315 19.6087 90.4748 19.5836 90.6602 19.5836H92.8345C93.003 19.5836 93.1379 19.6339 93.239 19.7346C93.357 19.8353 93.4076 19.9612 93.3907 20.1123C93.3739 20.3809 93.2306 20.7082 92.9609 21.0943C92.7081 21.4804 92.3373 21.8581 91.8485 22.2274C91.3597 22.5967 90.7445 22.9072 90.0028 23.159C89.2781 23.394 88.4437 23.5115 87.4999 23.5115ZM84.7188 15.58H90.3062V15.5045C90.3062 14.8498 90.1967 14.2791 89.9776 13.7923C89.7584 13.3055 89.4382 12.9194 89.0168 12.634C88.5954 12.3487 88.0898 12.206 87.4999 12.206C86.9099 12.206 86.4043 12.3487 85.9829 12.634C85.5615 12.9194 85.2413 13.3055 85.0222 13.7923C84.8199 14.2791 84.7188 14.8498 84.7188 15.5045V15.58Z" fill="#343B4E"/>
<path d="M96.4284 22.6554V10.7959C96.4284 10.6113 96.4874 10.4602 96.6054 10.3427C96.7233 10.2252 96.8666 10.1665 97.0352 10.1665H99.083C99.2516 10.1665 99.3949 10.2252 99.5128 10.3427C99.6477 10.4602 99.7151 10.6113 99.7151 10.7959V11.8283C100.103 11.2911 100.6 10.8799 101.207 10.5945C101.83 10.3091 102.547 10.1665 103.356 10.1665H104.392C104.578 10.1665 104.721 10.2252 104.822 10.3427C104.94 10.4602 104.999 10.6029 104.999 10.7708V12.5837C104.999 12.7515 104.94 12.8942 104.822 13.0117C104.721 13.1292 104.578 13.188 104.392 13.188H102.42C101.611 13.188 100.979 13.4146 100.524 13.8678C100.086 14.3211 99.8668 14.9421 99.8668 15.7311V18.9871C99.8668 20.0618 96.4284 23.7394 96.4284 22.6554Z" fill="#343B4E"/>
<path d="M30.2656 18.1241V23.9472C32.1787 23.9472 33.7296 22.4027 33.7296 20.4974V18.1241H30.2656Z" fill="#343B4E"/>
<path d="M45.3687 18.1241V23.9472C47.1988 23.9472 48.6825 22.4697 48.6825 20.647V18.1241H45.3687Z" fill="#343B4E"/>
<path d="M66.3316 24.1769V30C68.1887 30 69.6941 28.5007 69.6941 26.6512V24.1769H66.3316Z" fill="#343B4E"/>
<path d="M96.43 18.1241V23.9472C98.3284 23.9472 99.8673 22.4146 99.8673 20.5239V18.1241H96.43Z" fill="#343B4E"/>
</svg>
